<svg width="1024" height="384" viewBox="0 0 1024 384" fill="none" xmlns="http://www.w3.org/2000/svg">
<g clip-path="url(#clip0_41_78)">
<rect width="1024" height="384" rx="16" fill="#353C82"/>
<path d="M703.354 -62.3535C703.354 171.263 892.737 360.646 1126.35 360.646" stroke="#252D5B" stroke-width="8"/>
<path d="M763.5 158.5C529.884 158.5 340.5 347.884 340.5 581.5" stroke="#252D5B" stroke-width="8"/>
<path d="M240.207 433.872C357.016 231.554 287.696 -27.1489 85.3786 -143.957" stroke="#252D5B" stroke-width="8"/>
<path d="M498.243 249.914C295.925 133.106 37.2226 202.425 -79.5856 404.743" stroke="#252D5B" stroke-width="8"/>
<path d="M836.5 -207.5C602.884 -207.5 413.5 -18.1164 413.5 215.5" stroke="#252D5B" stroke-width="8"/>
</g>
<path d="M415.791 223.791C409.078 203.474 408.968 181.553 415.479 161.17C421.99 140.787 434.786 122.988 452.034 110.324C469.283 97.6608 490.097 90.7829 511.495 90.6761C532.892 90.5694 553.774 97.2394 571.148 109.73C588.521 122.221 601.495 139.891 608.209 160.208C614.922 180.526 615.032 202.447 608.521 222.83C602.01 243.213 589.214 261.012 571.966 273.676C554.717 286.339 533.903 293.217 512.506 293.324" stroke="#9097A5" stroke-width="24" stroke-linecap="round" stroke-linejoin="round"/>
<path d="M613.65 192.325C613.65 213.723 606.876 234.571 594.299 251.883C581.722 269.194 563.987 282.079 543.636 288.691C523.286 295.303 501.364 295.303 481.014 288.691C460.664 282.079 442.929 269.194 430.351 251.883C417.774 234.571 411 213.723 411 192.325C411 170.927 417.774 150.079 430.351 132.768C442.929 115.457 460.663 102.572 481.014 95.9592C501.364 89.3469 523.286 89.3469 543.636 95.9592" stroke="#616670" stroke-width="24" stroke-linecap="round" stroke-linejoin="round"/>
<defs>
<clipPath id="clip0_41_78">
<rect width="1024" height="384" fill="white"/>
</clipPath>
</defs>
</svg>
